<?xml version="1.0" encoding="UTF-8"?>
<svg width="512" height="512" version="1.1" viewBox="0 0 135.47 135.47" xmlns="http://www.w3.org/2000/svg" xmlns:cc="http://creativecommons.org/ns#" xmlns:dc="http://purl.org/dc/elements/1.1/" xmlns:osb="http://www.openswatchbook.org/uri/2009/osb" xmlns:rdf="http://www.w3.org/1999/02/22-rdf-syntax-ns#"><metadata><rdf:RDF><cc:Work rdf:about=""><dc:format>image/svg+xml</dc:format><dc:type rdf:resource="http://purl.org/dc/dcmitype/StillImage"/><dc:title/></cc:Work></rdf:RDF></metadata><rect x="1.0586e-5" y="-4.6387e-7" width="135.47" height="135.47" fill="#f2f2f2"/><path transform="scale(.26458)" d="m17.945 0-17.945 30.066v75.422l62.959-105.49h-45.014zm73.824 0-91.77 153.76v75.422l136.78-229.18h-45.014zm73.621 0-165.39 277.11v75.422l210.4-352.53h-45.014zm73.646 0-239.04 400.5v75.424l284.05-475.93h-45.016zm73.438 0-305.58 512h45.016l305.58-512h-45.016zm73.533 0-305.58 512h45.008l305.58-512h-45.008zm73.648 0-305.58 512h45.01l305.58-512h-45.014zm52.344 35.943-284.13 476.06h45.008l239.12-400.64v-75.412zm0 123.24-210.58 352.82h45.014l165.56-277.4v-75.422zm0 123.43-136.91 229.39h45.008l91.9-153.98v-75.412zm0 123.83-63.002 105.56h45.008l17.994-30.148v-75.412z" color="#000000" color-rendering="auto" dominant-baseline="auto" fill="#29c4cc" image-rendering="auto" shape-rendering="auto" solid-color="#000000" stop-color="#000000" style="font-feature-settings:normal;font-variant-alternates:normal;font-variant-caps:normal;font-variant-east-asian:normal;font-variant-ligatures:normal;font-variant-numeric:normal;font-variant-position:normal;font-variation-settings:normal;inline-size:0;isolation:auto;mix-blend-mode:normal;shape-margin:0;shape-padding:0;text-decoration-color:#000000;text-decoration-line:none;text-decoration-style:solid;text-indent:0;text-orientation:mixed;text-transform:none;white-space:normal"/><g transform="matrix(.72965 0 0 .72965 18.424 17.223)" shape-rendering="auto" stroke-width="1.3705"><path d="m124.01 25.354-19.556 11.291-36.873 21.289-9.56e-4 22.58 36.874-21.289v53.873l14.668-8.4682 4.8882-2.8234v-53.872z" color="#000000" color-rendering="auto" dominant-baseline="auto" fill="#fff" fill-opacity=".99991" image-rendering="auto" solid-color="#000000" stop-color="#000000" style="font-feature-settings:normal;font-variant-alternates:normal;font-variant-caps:normal;font-variant-east-asian:normal;font-variant-ligatures:normal;font-variant-numeric:normal;font-variant-position:normal;font-variation-settings:normal;inline-size:0;isolation:auto;mix-blend-mode:normal;shape-margin:0;shape-padding:0;text-decoration-color:#000000;text-decoration-line:none;text-decoration-style:solid;text-indent:0;text-orientation:mixed;text-transform:none;white-space:normal"/><path d="m11.15 25.354 56.429 32.58 9.6e-4 22.58-19.556-11.29-17.318-9.9988v53.873l-14.668-8.4682-4.8882-2.8234v-53.872z" color="#000000" color-rendering="auto" dominant-baseline="auto" fill="#edf9fa" image-rendering="auto" solid-color="#000000" stop-color="#000000" style="font-feature-settings:normal;font-variant-alternates:normal;font-variant-caps:normal;font-variant-east-asian:normal;font-variant-ligatures:normal;font-variant-numeric:normal;font-variant-position:normal;font-variation-settings:normal;inline-size:0;isolation:auto;mix-blend-mode:normal;shape-margin:0;shape-padding:0;text-decoration-color:#000000;text-decoration-line:none;text-decoration-style:solid;text-indent:0;text-orientation:mixed;text-transform:none;white-space:normal"/></g></svg>
