<?xml version="1.0" encoding="UTF-8"?>
<svg width="749.45" height="755.5" version="1.1" viewBox="0 0 198.29 199.89" xmlns="http://www.w3.org/2000/svg" xmlns:cc="http://creativecommons.org/ns#" xmlns:dc="http://purl.org/dc/elements/1.1/" xmlns:osb="http://www.openswatchbook.org/uri/2009/osb" xmlns:rdf="http://www.w3.org/1999/02/22-rdf-syntax-ns#"><metadata><rdf:RDF><cc:Work rdf:about=""><dc:format>image/svg+xml</dc:format><dc:type rdf:resource="http://purl.org/dc/dcmitype/StillImage"/><dc:title/></cc:Work></rdf:RDF></metadata><g transform="translate(31.412)"><rect x="1.0586e-5" y="-4.6387e-7" width="135.47" height="135.47" fill="#f2f2f2"/><path transform="scale(.26458)" d="m17.945 0-17.945 30.066v75.422l62.959-105.49zm73.824 0-91.77 153.76v75.422l136.78-229.18zm73.621 0-165.39 277.11v75.422l210.4-352.53zm73.646 0-239.04 400.5v75.424l284.05-475.93zm73.438 0-305.58 512h45.016l305.58-512zm73.533 0-305.58 512h45.008l305.58-512zm73.648 0-305.58 512h45.01l305.58-512zm52.344 35.943-284.13 476.06h45.008l239.12-400.64zm0 123.24-210.58 352.82h45.014l165.56-277.4zm0 123.43-136.91 229.39h45.008l91.9-153.98zm0 123.83-63.002 105.56h45.008l17.994-30.148z" color="#000000" color-rendering="auto" dominant-baseline="auto" fill="#29c4cc" image-rendering="auto" shape-rendering="auto" solid-color="#000000" stop-color="#000000" style="font-feature-settings:normal;font-variant-alternates:normal;font-variant-caps:normal;font-variant-east-asian:normal;font-variant-ligatures:normal;font-variant-numeric:normal;font-variant-position:normal;font-variation-settings:normal;inline-size:0;isolation:auto;mix-blend-mode:normal;shape-margin:0;shape-padding:0;text-decoration-color:#000000;text-decoration-line:none;text-decoration-style:solid;text-indent:0;text-orientation:mixed;text-transform:none;white-space:normal"/><g transform="matrix(.72965 0 0 .72965 18.424 17.223)" shape-rendering="auto" stroke-width="1.3705"><path d="m124.01 25.354-19.556 11.291-36.873 21.289-9.56e-4 22.58 36.874-21.289v53.873l14.668-8.4682 4.8882-2.8234v-53.872z" color="#000000" color-rendering="auto" dominant-baseline="auto" fill="#fff" fill-opacity=".99991" image-rendering="auto" solid-color="#000000" stop-color="#000000" style="font-feature-settings:normal;font-variant-alternates:normal;font-variant-caps:normal;font-variant-east-asian:normal;font-variant-ligatures:normal;font-variant-numeric:normal;font-variant-position:normal;font-variation-settings:normal;inline-size:0;isolation:auto;mix-blend-mode:normal;shape-margin:0;shape-padding:0;text-decoration-color:#000000;text-decoration-line:none;text-decoration-style:solid;text-indent:0;text-orientation:mixed;text-transform:none;white-space:normal"/><path d="m11.15 25.354 56.429 32.58 9.6e-4 22.58-19.556-11.29-17.318-9.9988v53.873l-14.668-8.4682-4.8882-2.8234v-53.872z" color="#000000" color-rendering="auto" dominant-baseline="auto" fill="#edf9fa" image-rendering="auto" solid-color="#000000" stop-color="#000000" style="font-feature-settings:normal;font-variant-alternates:normal;font-variant-caps:normal;font-variant-east-asian:normal;font-variant-ligatures:normal;font-variant-numeric:normal;font-variant-position:normal;font-variation-settings:normal;inline-size:0;isolation:auto;mix-blend-mode:normal;shape-margin:0;shape-padding:0;text-decoration-color:#000000;text-decoration-line:none;text-decoration-style:solid;text-indent:0;text-orientation:mixed;text-transform:none;white-space:normal"/></g><g transform="matrix(.79632 0 0 .79632 4.3931 23.54)" fill="#333" stroke-width="1.2558"><path d="m-44.963 208.54v-28.05h5.0073l3.0914 2.0554 3.0914-2.0554h13.651l3.1059 2.0554 3.1059-2.0554h14.732l3.6382 3.6382v24.412h-9.8847v-19.435h-9.8847v19.435h-9.8847v-19.435h-9.8847v19.435z"/><path d="m35.799 180.49v24.41l3.64 3.6401h32.694v-24.41l-3.637-3.6401zm9.8848 8.6159h16.564v10.819h-16.564z" stroke-linecap="square" stroke-linejoin="round" stroke-opacity=".13432" stroke-width="21.264"/><path d="m103.47 180.49v28.05h9.8842v-19.435h26.45l-3.2553-8.6159h-21.862l-3.0342 2.0554-3.0342-2.0554z"/><path d="m166.96 180.49 13.076 34.423h-11.093l-2.4745 6.5493h17.422l7.2776-7.2767 12.876-33.696h-9.8847l-8.6574 22.894-8.6574-22.894z"/></g></g></svg>
